<svg version="1" xmlns="http://www.w3.org/2000/svg" width="682.667" height="682.667" viewBox="0 0 512.000000 512.000000"><path d="M95 3.7C86.7 6.6 79.3 13.2 75.6 21l-2.1 4.5v461l2.3 4.7c3 6.2 9.5 12.8 15.7 15.8l5 2.5h319l5-2.5c6.2-3 12.2-9.1 15.5-15.6l2.5-4.9v-461l-2.4-4.8C433 14.4 426.7 8 420.5 5l-5-2.5-158-.2C116.2 2.1 99 2.3 95 3.7zm174.3 37.2c19.7 4.6 37.9 22.4 42.4 41.6 1 4.6 2 14.2 1.7 17-1.2 9.1-1.6 11.4-3.1 15.9-5.8 17.8-22.4 32.8-40.9 37.2-6.8 1.6-17.5 2-22.4.9-1.4-.3-3.8-.7-5.5-1-1.6-.3-6.7-2.4-11.2-4.6-19.3-9.6-31.2-28.5-31.5-49.9-.4-29.3 20-53.3 49.7-58.3 3.7-.6 16 .1 20.8 1.2zM142 193.5c4 2.1 6.7 6.3 7.5 11.5 1.7 12.1-12.1 21.5-22.6 15.3-4.9-2.8-7.9-7.7-7.9-12.9 0-12.5 11.9-19.7 23-13.9zm243.8 0c6.9 4.1 9.4 15 4.9 21.5-6.8 10.2-21.4 9.4-26.6-1.4-2.7-5.4-2.6-9.1.2-14.1 4.3-7.5 14.2-10.3 21.5-6zM280 206c2.5.7 5.4 1.3 6.5 1.6 11 2.2 30 11 41.4 19.2 34.5 24.7 53.6 62.7 52.6 104.7-.4 14.6-.6 16.3-4.1 29.4-11.6 44.5-48.4 79.8-93.4 89.5-16.6 3.6-34.8 3.9-49.5 1-34.5-6.9-62.3-25.3-81.2-53.6-9.8-14.8-15.2-28.3-19.9-49.8-.3-1.4-.7-8.6-.9-16-.4-15.1 1.5-28.6 6-42.3 12.2-37.4 42.6-67.7 80-79.6 7.9-2.6 11.4-3.4 23.5-5.5 4.6-.8 34.4.3 39 1.4zM142.1 437.3c5.5 3.7 7.7 7.8 7.4 13.8-.4 7.9-5.6 13.6-13.4 14.6-11.5 1.6-20.8-10.9-16.1-21.5 1.6-3.6 5.3-7.1 9-8.5 3.7-1.4 9.8-.6 13.1 1.6zm242.6-.7c10.9 5.2 11.1 21.9.2 27.4-7.1 3.7-14.6 1.9-19.5-4.5-3.6-4.8-4-12.8-.8-17.2 5.1-6.9 12.8-9.1 20.1-5.7z"/><path d="M244 55.9c-7.4 2.4-10.7 4.2-16.1 9-16.8 14.7-19.3 39.9-5.9 57.5 12.3 16.2 33.4 21.5 51.7 13.1 23.2-10.6 31.9-38.6 18.9-60.8-3.1-5.3-11.2-13-16.5-15.7-9.8-4.9-22.3-6.1-32.1-3.1zm19.7 22.2c1.7.5 4.5 2.4 6.2 4.1 12.7 13 4.9 33.8-13 34.7-11.5.6-21.3-8.7-21-20.1.3-14.7 13.3-23.5 27.8-18.7zM253.8 223.5c-.2.2-3.4.5-7.3.8-22.9 1.9-44.4 11.4-61 26.9-17.6 16.5-27.6 34.5-33.1 59.3-1.3 6.2-1.2 29 .2 36.5 6.2 32.8 27.1 60.7 56.4 75.5 6.2 3.1 17.3 7.3 21.5 8.1 1.1.2 4.5.9 7.5 1.5 6.4 1.4 24.1 1.7 32 .6 43.1-6 77.1-36.8 88.2-80 2.2-8.7 3.1-31.4 1.6-40.7-3.2-19.1-12.9-39.1-26.3-54.1-16.4-18.3-42.3-31.4-66.1-33.5-3.8-.3-8.4-.7-10.1-.8-1.8-.2-3.4-.2-3.5-.1zm12.3 54.5c3 .6 8.6 2.5 12.4 4.4 30.8 14.7 38.7 55.3 15.8 80.6-21.7 24-59.2 22.8-78.9-2.5-21.6-27.7-9.8-68.8 23.1-80.3 9.4-3.3 18-4 27.6-2.2z"/></svg>