<svg width="512" height="512" viewBox="0 0 512.000000 512.000000" xmlns="http://www.w3.org/2000/svg" preserveAspectRatio="xMidYMid meet" version="1.0">
    <path fill="#272727" id="svg_2" d="m111.2,30.89999c-6.6,2.3 -12.6,7.9 -15.8,14.6l-2.4,5l0,206l0,206l2.4,5c1.2,2.7 4.3,6.9 6.9,9.2c8.5,7.8 -2,7.3 154.2,7.3c120.6,0 139.8,-0.2 144.2,-1.5c6.5,-1.9 13.9,-8.5 16.9,-15l2.4,-5l0,-206l0,-206l-2.4,-5c-1.2,-2.8 -4.3,-6.9 -6.9,-9.2c-8.5,-7.8 2,-7.3 -154.6,-7.3c-132.9,0.1 -139.9,0.2 -144.9,1.9zm155.9,32.5c18.8,4 34.5,19.1 39.5,38.1c4.4,16.2 -1.1,35.8 -13.4,48.3c-10.2,10.5 -21.7,15.2 -36.7,15.2c-15,0 -26.5,-4.7 -36.7,-15.2c-19.9,-20.2 -19.8,-51.7 0.2,-71.9c12.9,-13.1 29.6,-18.2 47.1,-14.5zm-116,135.6c10,2.8 13.4,15.5 6.2,23.2c-4.2,4.4 -12,5.3 -17.5,2c-2.9,-1.7 -6.8,-8.3 -6.8,-11.5c0,-5.4 5.2,-12.1 10.5,-13.6c4,-1.2 3.5,-1.2 7.6,-0.1zm222,1.8c8.3,4.7 8.2,18.6 -0.1,23.5c-10.6,6.3 -24.2,-3.6 -21,-15.3c2.4,-9.1 12.7,-13.1 21.1,-8.2zm-89.1,12.2c39.2,10.3 69.6,40.2 80.4,79c9.3,33.9 2.7,68.3 -18.7,97.2c-16.2,22 -43.6,38.6 -70.7,42.9c-48.6,7.7 -95.7,-16 -118.2,-59.7c-12.9,-25.1 -15.7,-52.4 -8.2,-80.4c11.4,-42.4 47.7,-74.4 91.9,-81.4c1.7,-0.2 10.2,-0.3 19,-0.1c12.6,0.2 17.8,0.8 24.5,2.5zm-129.3,206c6.2,3.7 8.5,13.5 4.5,18.9c-2.8,3.8 -8.1,7.1 -11.4,7.1c-4.3,0 -9.5,-2.7 -12,-6.3c-2.7,-3.8 -2.9,-11.3 -0.4,-15.1c4.1,-6.3 13.1,-8.4 19.3,-4.6zm218,0c4.6,2.8 6.7,6.5 6.7,11.9c0,5.7 -2.8,10.1 -7.8,12.5c-4.6,2.2 -8.1,2 -12.6,-0.5c-6.8,-3.9 -9.2,-11.8 -5.6,-18.7c3.5,-6.7 12.7,-9.2 19.3,-5.2z"/>
    <path fill="#272727" id="svg_3" d="m244.8,77.29999c-19.1,7.2 -30.1,26.4 -25.4,44.6c3.3,12.8 10,21.2 21.5,26.8c5,2.4 6.7,2.8 15.6,2.8c8.9,0 10.6,-0.4 15.6,-2.8c11.5,-5.6 18.2,-14 21.5,-26.7c4.2,-16.4 -4.5,-34.3 -20.8,-42.6c-4.5,-2.3 -6.8,-2.8 -14.8,-3.1c-6.3,-0.2 -10.7,0.1 -13.2,1zm19.5,20.1c1.8,0.7 4.5,2.7 5.9,4.4c12.9,15.4 -3.6,36.6 -21.9,28.3c-7.6,-3.5 -12,-13.5 -9.3,-21.5c1.5,-4.7 5.6,-9.5 9.5,-11.2c3.9,-1.7 11.7,-1.8 15.8,0z"/>
    <path fill="#272727" id="svg_4" d="m238,229.5c-37.3,8.4 -64.3,34.7 -73.2,71.5c-4.4,18 -2,41.6 5.9,59.1c10.8,23.7 32.2,43 56.3,50.7c11.2,3.6 18.1,4.6 30.5,4.5c31.5,-0.2 59.9,-15.7 77.2,-42c11.1,-16.9 15.4,-31.6 15.4,-51.8c0,-14.1 -1.5,-22.2 -6.7,-35.2c-6.1,-15.4 -18.7,-31.4 -31.9,-40.8c-8,-5.7 -21.4,-12.1 -30.6,-14.7c-9.9,-2.7 -33.5,-3.4 -42.9,-1.3zm27.1,46.5c13.5,2.6 27.6,13.3 33.3,25.3c5.8,12.3 5.7,28.6 -0.1,40.7c-3.5,7.3 -14.2,17.9 -21.4,21.3c-18.6,8.7 -39.6,5.1 -53.2,-9.2c-6.9,-7.2 -10.2,-13.1 -12.1,-21.1c-3.8,-16.1 -0.2,-30.5 10.8,-42.6c10.9,-12.1 26.8,-17.4 42.7,-14.4z"/>
</svg>
