<?xml version="1.0" standalone="no"?>
<!DOCTYPE svg PUBLIC "-//W3C//DTD SVG 20010904//EN"
    "http://www.w3.org/TR/2001/REC-SVG-20010904/DTD/svg10.dtd">
<svg version="1.0" xmlns="http://www.w3.org/2000/svg"
     width="512.000000pt" height="512.000000pt" viewBox="0 0 512.000000 512.000000"
     preserveAspectRatio="xMidYMid meet">
    <metadata>
        Created by potrace 1.11, written by Peter Selinger 2001-2013
    </metadata>
    <g transform="translate(0.000000,512.000000) scale(0.100000,-0.100000)"
       fill="#000000" stroke="none">
        <path d="M1143 4830 c-77 -18 -151 -80 -196 -164 l-22 -41 -3 -2059 -2 -2059
23 -51 c33 -73 79 -121 145 -153 l57 -28 1420 0 1420 0 57 28 c61 30 105 74
140 140 l23 42 0 2070 0 2070 -29 53 c-33 60 -76 101 -139 134 l-42 23 -1410
2 c-775 0 -1424 -2 -1442 -7z m1579 -364 c38 -13 88 -36 113 -50 99 -58 189
-181 221 -300 18 -68 18 -198 -1 -271 -68 -260 -349 -426 -608 -359 -236 61
-387 253 -387 493 0 102 16 166 61 252 62 116 195 217 325 248 79 18 204 12
276 -13z m-1167 -1367 c64 -57 66 -151 4 -203 -57 -49 -132 -46 -180 5 -113
121 52 306 176 198z m2176 8 c93 -63 64 -222 -44 -242 -48 -9 -78 -1 -116 31
-94 79 -38 233 85 234 26 0 53 -8 75 -23z m-901 -122 c203 -51 416 -176 550
-323 131 -142 237 -345 276 -527 20 -97 23 -339 5 -435 -74 -393 -374 -736
-747 -853 -241 -76 -457 -76 -698 0 -374 118 -672 458 -748 853 -17 91 -14
337 5 434 37 177 145 385 277 528 161 176 413 308 667 348 102 16 296 4 413
-25z m-1313 -2046 c74 -28 106 -102 78 -176 -22 -56 -63 -83 -126 -83 -137 0
-178 189 -55 250 47 23 63 24 103 9z m2210 -14 c110 -73 64 -245 -66 -245 -63
0 -104 27 -126 83 -47 123 83 233 192 162z"/>
        <path d="M2465 4357 c-175 -59 -274 -182 -283 -353 -6 -108 14 -175 76 -255
87 -113 230 -174 359 -152 132 23 243 104 300 220 25 53 28 68 28 163 0 93 -3
112 -27 162 -62 132 -192 219 -338 225 -44 2 -91 -3 -115 -10z m203 -234 c99
-79 95 -221 -9 -290 -142 -94 -323 62 -255 220 44 103 178 139 264 70z"/>
        <path d="M2395 2836 c-301 -60 -547 -248 -678 -519 -72 -147 -91 -234 -92
-412 0 -133 3 -161 27 -247 49 -176 132 -312 266 -439 97 -92 159 -133 279
-184 138 -60 190 -70 368 -70 178 0 230 10 368 70 130 56 187 95 297 205 86
86 115 123 159 204 89 162 127 325 118 506 -12 233 -100 437 -263 609 -112
120 -257 205 -434 257 -107 32 -307 41 -415 20z m290 -491 c84 -22 147 -60
209 -125 95 -99 131 -199 124 -344 -7 -147 -69 -259 -192 -348 -183 -131 -465
-96 -609 77 -215 257 -94 653 226 740 70 18 170 18 242 0z"/>
    </g>
</svg>
