<?xml version="1.0" standalone="no"?>
<!DOCTYPE svg PUBLIC "-//W3C//DTD SVG 20010904//EN"
 "http://www.w3.org/TR/2001/REC-SVG-20010904/DTD/svg10.dtd">
<svg version="1.0" xmlns="http://www.w3.org/2000/svg"
 width="700.000000pt" height="700.000000pt" viewBox="0 0 700.000000 700.000000"
 preserveAspectRatio="xMidYMid meet">
<metadata>
Created by potrace 1.14, written by Peter Selinger 2001-2017
</metadata>
<g transform="translate(0.000000,700.000000) scale(0.100000,-0.100000)"
fill="#000000" stroke="none">
<path d="M2257 6604 c-1 -1 -157 -4 -347 -7 -329 -4 -348 -6 -405 -27 -75 -29
-160 -111 -204 -198 l-31 -61 0 -2817 0 -2816 35 -67 c41 -77 133 -176 179
-191 50 -16 146 -26 288 -30 223 -6 3455 -4 3581 2 99 5 126 10 171 32 70 34
144 108 185 185 l33 63 0 2822 0 2821 -32 62 c-30 57 -105 142 -156 177 -11 8
-38 18 -60 21 -21 4 -48 9 -58 11 -66 12 -588 17 -1799 18 -758 1 -1379 0
-1380 0z m1382 -469 c76 -17 143 -41 199 -72 51 -28 158 -110 182 -140 98
-119 142 -200 177 -328 3 -11 7 -70 9 -131 4 -133 -14 -213 -79 -344 -48 -96
-153 -212 -248 -275 -70 -45 -178 -83 -266 -94 -61 -7 -196 -6 -233 2 -8 2
-33 7 -55 11 -22 4 -81 28 -132 53 -141 68 -272 205 -333 349 -74 172 -74 385
0 550 97 215 317 393 518 420 26 3 49 8 52 11 9 8 153 0 209 -12z m-1557
-1864 c139 -60 162 -231 45 -325 -36 -28 -45 -31 -112 -31 -83 0 -111 14 -157
81 -55 79 -46 156 27 229 64 64 123 78 197 46z m3004 -10 c46 -21 78 -59 91
-111 32 -129 -48 -240 -172 -240 -216 0 -273 283 -73 361 48 19 96 15 154 -10z
m-1401 -145 c135 -9 194 -21 331 -71 390 -141 702 -425 878 -800 54 -115 107
-288 123 -400 3 -22 8 -58 12 -80 13 -71 5 -325 -13 -420 -125 -666 -637
-1160 -1306 -1260 -25 -4 -101 -8 -170 -10 -530 -10 -1013 244 -1308 685 -95
143 -203 397 -226 530 -61 362 -23 670 123 975 197 414 602 734 1051 833 52
12 106 23 120 24 38 5 283 1 385 -6z m-1564 -2851 c68 -45 102 -163 66 -231
-32 -61 -114 -116 -173 -116 -47 0 -120 38 -151 79 -35 46 -44 142 -18 197 45
95 186 131 276 71z m2984 -3 c50 -35 78 -83 81 -141 4 -84 -36 -147 -118 -186
-42 -19 -54 -21 -98 -12 -90 18 -160 99 -160 187 0 150 170 237 295 152z"/>
<path d="M3373 5950 c-81 -18 -209 -105 -276 -188 -203 -255 -112 -640 187
-788 78 -38 83 -39 204 -42 140 -4 189 7 283 64 190 115 289 343 244 564 -22
107 -126 252 -229 321 -86 57 -138 71 -266 73 -63 2 -130 -1 -147 -4z m242
-284 c100 -42 162 -176 133 -286 -53 -197 -328 -246 -443 -80 -75 108 -58 237
44 334 54 51 182 67 266 32z"/>
<path d="M3310 3870 c-158 -21 -418 -124 -535 -212 -225 -170 -354 -331 -454
-566 -38 -90 -80 -241 -88 -319 -21 -185 3 -426 59 -588 141 -413 531 -756
953 -839 17 -4 41 -9 55 -12 47 -10 295 -12 360 -3 113 15 123 18 215 44 186
53 384 171 533 317 166 163 317 430 348 618 3 14 7 31 9 38 18 49 25 313 12
430 -27 256 -169 536 -378 743 -177 176 -442 312 -669 344 -68 10 -357 13
-420 5z m340 -650 c120 -32 231 -99 323 -194 117 -120 163 -243 161 -431 -1
-193 -51 -307 -198 -449 -120 -116 -238 -166 -406 -172 -152 -5 -246 21 -370
102 -65 42 -93 69 -161 154 -125 155 -160 411 -83 604 18 46 91 158 131 202
49 54 159 131 220 154 125 47 276 59 383 30z"/>
</g>
</svg>
