<?xml version="1.0" encoding="UTF-8"?>
<svg width="287.52" height="66.558" version="1.1" xmlns="http://www.w3.org/2000/svg" xmlns:cc="http://creativecommons.org/ns#" xmlns:dc="http://purl.org/dc/elements/1.1/" xmlns:rdf="http://www.w3.org/1999/02/22-rdf-syntax-ns#">
 <metadata>
  <rdf:RDF>
   <cc:Work rdf:about="">
    <dc:format>image/svg+xml</dc:format>
    <dc:type rdf:resource="http://purl.org/dc/dcmitype/StillImage"/>
    <dc:title/>
   </cc:Work>
  </rdf:RDF>
 </metadata>
 <g transform="translate(-19.89 -972.68)">
  <g>
   <g transform="matrix(2.9137 0 0 3.1934 -38.064 -2133.5)">
    <path d="m36.83 990.28q0.56146 1.5885 2.7662 1.5885 0.20541 0 0.20541 0.64362 0 0.62993-0.20541 0.62993-1.5748-0.0959-3.6289-0.0959t-3.7659 0.0959q-0.20541 0-0.20541-0.62993 0-0.64362 0.20541-0.64362 1.3146 0 1.3146-0.89012 0-0.28757-0.13694-0.69839l-1.3694-4.0671q-0.09586-0.30127-0.4656-0.32866h-5.1079q-0.28758 0-0.43821 0.39713l-1.4927 4.0124q-0.12325 0.32866-0.12325 0.57515 0 0.99967 2.013 0.99967 0.17802 0 0.17802 0.64362 0 0.62993-0.17802 0.62993-1.1366-0.0959-3.1907-0.0959t-3.1222 0.0959q-0.19172 0-0.19172-0.62993 0-0.64362 0.19172-0.64362 2.0815 0 2.7662-1.7939l5.0668-13.256q0.17802-0.41082 0.17802-0.52037 0-0.10956-0.20541-0.30127-0.19172-0.19172-0.19172-0.31497 0-0.20541 0.4519-0.35604 0.4519-0.15064 1.4105-0.72579 0.97228-0.57515 1.2325-0.57515 0.4519 0 0.60254 0.65732 0.15063 0.64362 0.72578 2.2458zm-7.4907-11.859q-0.06847-0.21911-0.2191-0.21911-0.13694 0-0.2191 0.21911l-2.1774 5.9432q-0.04108 0.10955-0.05478 0.2191 0 0.15064 0.28758 0.15064h4.0124q0.38343 0 0.38343-0.30127 0-0.0822-0.04108-0.20541l-1.9719-5.8063z"/>
    <path d="m48.082 984.55q-0.50668 0-0.76687-0.39712l-0.53407-0.90381q-0.53407-0.80795-1.5337-0.80795-1.1092 0-1.9309 1.2736-0.90381 1.3968-0.90381 3.355 0 1.8213 1.2051 3.1086 1.0818 1.1503 2.4649 1.1503 1.4927 0 2.5608-0.75317 0.2328-0.16433 0.62993 0.41082 0.35605 0.58884 0.12325 0.73948l-1.1229 0.72578q-1.5885 0.90381-3.6426 0.90381-1.9172 0-3.4372-1.3557-1.9172-1.6844-1.9172-4.2589 0-2.328 1.4516-4.2041 1.8624-2.4102 4.7929-2.4102 1.8487 0 3.0538 0.61623 0.53407 0.27388 0.73948 0.61623 0.08216 0.21911 0.08216 0.54777 0 0.71209-0.42452 1.164-0.47929 0.47929-0.89012 0.47929z"/>
    <path d="m62.693 987.21q0 2.8621-1.6844 4.5327-1.6296 1.6159-4.4917 1.6159-2.5334 0-4.2862-1.6707-1.9035-1.7939-1.9035-4.4506 0-2.328 1.5063-4.0534 1.8076-2.0541 4.656-2.0541 2.9853 0 4.8066 2.1637 1.3968 1.6707 1.3968 3.9165zm-3.4783 0.0822q0-2.5197-0.97228-3.9987-0.72579-1.1092-1.7255-1.1092-1.1229 0-1.9035 1.4242-0.82164 1.4927-0.82164 3.6837 0 2.5334 0.99967 3.9302 0.71209 0.98597 1.6981 0.98597 1.2872 0 2.0541-1.5611 0.67101-1.3557 0.67101-3.355z"/>
    <path d="m77.021 992.62q-0.10955 0.0274-1.4379 0.28758-0.35605 0.0685-0.6984 0.13694-0.76687 0.16433-1.5611 0.42452-0.17802 0.0548-0.32866 0.0548-0.20541 0-0.20541-0.61623v-0.64362q0-0.31497-0.16433-0.31497t-0.36974 0.19172q-1.2599 1.2188-3.3687 1.2188-1.7255 0-2.328-0.47929-2.013-1.6159-2.013-4.0671v-4.7382q0-1.4105-1.1503-1.4105-0.20541 0-0.20541-0.49298 0-0.50669 0.20541-0.50669 1.5337 0 3.0675-0.24649 0.42452-0.0685 0.6847-0.0685 0.62993 0 0.62993 0.60254-0.09586 1.342-0.09586 2.2048v4.6834q0 1.6844 0.6847 2.4923 0.38343 0.4519 1.342 0.4519 0.87642 0 1.8076-0.75317 0.73948-0.60254 0.73948-1.2736v-5.683q0-1.4105-1.1503-1.4105-0.2191 0-0.2191-0.49298 0-0.50669 0.2191-0.50669 1.52 0 3.1359-0.26018 0.34235-0.0548 0.53407-0.0548 0.72579 0 0.72579 0.49299-0.10955 1.3009-0.10955 2.1363v5.5598q0 1.2325 0.13694 1.6022 0.19172 0.54777 0.72579 0.54777 0.17802 0 0.4519-0.0685 0.2191-0.0548 0.36974 0.43821 0.04108 0.19171 0.04108 0.31496 0 0.20541-0.09586 0.24649z"/>
    <path d="m81.622 993.36q-1.9993 0-3.2866-0.82164-0.38343-0.9175-0.38343-3.0264 0-0.26019 0.4656-0.26019 0.52038 0 0.57515 0.2328 0.05478 0.73948 0.9175 1.7392 0.89012 1.0408 2.1637 1.0408 0.67101 0 1.2325-0.57515 0.4519-0.4656 0.4519-1.0271 0-1.6433-2.3554-2.2732-2.4239-0.64362-3.2455-2.0541-0.41082-0.71209-0.41082-1.6707 0-1.5611 1.3694-2.5882 1.2735-0.94489 3.0675-0.94489 1.6844 0 2.9716 0.49298 0.53407 1.4379 0.53407 2.6156 0 0.26019-0.41082 0.26019-0.43821 0-0.47929-0.15064-0.24649-0.69839-1.0955-1.5474-0.56146-0.54776-1.7118-0.54776-0.83534 0-1.3557 0.6847-0.31496 0.42452-0.30127 0.87642 0 1.3694 2.3006 1.9446 2.1911 0.54777 3.0675 1.6022 0.6847 0.83534 0.6847 2.15 0 1.8213-1.52 2.9305-1.2735 0.94489-3.2455 0.9175z"/>
    <path d="m96.521 991.81q-1.479 1.5474-3.7522 1.5474-2.999-0.0274-3.4509-2.506-0.08217-0.45191-0.08217-0.99967v-6.5868q0-0.42452-0.42452-0.42452h-0.75317q-0.2191 0-0.2191-0.50668t0.2191-0.50668q0.83534 0 1.8213-0.80795 0.94489-0.78056 1.2599-1.7254 0.05478-0.16433 0.57515-0.0137 0.60254 0.16432 0.6847 0.41082v1.2872q0 0.42452 0.42452 0.42452h2.9442q0.20541 0 0.20541 0.72578 0 0.71209-0.20541 0.71209h-2.9442q-0.42452 0-0.42452 0.42452v5.683q0 1.657 0.4656 2.1774 0.36974 0.42452 1.1914 0.42452 0.71209 0 1.7391-0.64363 0.15064-0.10955 0.52038 0.32866 0.24649 0.31497 0.24649 0.47929 0 0.0548-0.04108 0.0959z"/>
    <path d="m100.88 990.58q-0.0548 0.19171-0.0548 0.30127 0 0.2328 0.34236 0.2328 0.35604 0 1.2188-1.0955 0.15063-0.19172 0.52037 0.15063 0.27388 0.2465 0.28758 0.38344 0 0.0548-0.0411 0.10955-0.87642 1.0818-1.972 1.9172t-1.8487 0.83534q-1.3831 0-1.3831-1.7118 0-0.4656 0.15064-0.95858l2.013-6.5595q0.0548-0.17802 0.0548-0.28757 0-0.27388-0.26019-0.27388-0.26019 0-1.3283 1.1229-0.16433 0.16433-0.52038-0.19172-0.24649-0.24649-0.24649-0.38343 0-0.0411 0.04108-0.0959 0.86273-1.0544 1.9446-1.8761 1.0818-0.82164 1.835-0.82164 1.4242 0 1.4242 1.7254 0 0.34235-0.16433 0.87642l-2.013 6.6006zm4.1493-13.146q0 0.73948-0.60254 1.2598-0.58884 0.52038-1.3009 0.52038-1.9446 0-1.9446-2.0815 0-0.68471 0.60254-1.2188t1.342-0.53407q1.9172 0 1.9035 2.0541z" fill="#a00"/>
    <path d="m114.54 989.92q-0.15063 0.65732-0.16433 0.87642 0 0.30127 0.2328 0.30127 0.38344 0 1.2872-1.164 0.0959-0.12325 0.30127 0 0.21911 0.10955 0.36974 0.31496 0.16433 0.20541 0.0822 0.32866-2.013 2.8347-3.7522 2.8347-0.79425 0-1.0544-0.49299-0.26019-0.49298-0.26019-1.3968 0-0.27388 0.24649-1.4242l-0.16432-0.0822q-1.1777 1.3831-2.4512 2.3965-1.2736 0.99967-2.4923 0.99967-1.1503 0-1.6707-0.86273-0.52038-0.87642-0.52038-1.8624 0-2.7388 2.4923-6.0254 2.506-3.2866 5.3133-3.2866 0.75317 0 1.479 0.42452l1.2735-5.327q0.13694-0.58884 0.13694-1.0271 0-1.027-0.84903-1.027-0.26019 0-0.26019-0.49299 0-0.49298 0.26019-0.49298 1.1503 0 2.4649-0.36974 1.3283-0.38344 1.4379-0.38344 0.28758 0 0.28758 0.26019 0 0.0822-0.0411 0.27388l-3.985 16.707zm-1.0818-6.6142q-0.56146-0.80795-1.3831-0.80795-1.5611 0-3.0401 2.7662-1.4653 2.7525-1.4653 4.9709 0 1.2872 0.64362 1.2872 0.79426 0 2.4649-1.8076 1.6707-1.8076 1.9035-2.7525z" fill="#a00"/>
   </g>
  </g>
 </g>
</svg>
