<?xml version="1.0" standalone="no"?>
<!DOCTYPE svg PUBLIC "-//W3C//DTD SVG 20010904//EN"
 "http://www.w3.org/TR/2001/REC-SVG-20010904/DTD/svg10.dtd">
<svg version="1.0" xmlns="http://www.w3.org/2000/svg"
 width="1735.000000pt" height="388.000000pt" viewBox="0 0 1735.000000 388.000000"
 preserveAspectRatio="xMidYMid meet">
<g transform="translate(0.000000,388.000000) scale(0.100000,-0.100000)"
 stroke="none">
<path d="M13104 3796 c-57 -26 -100 -73 -120 -132 -20 -58 -20 -3340 0 -3398
21 -60 63 -106 123 -132 l54 -24 1144 0 c1115 0 1146 1 1197 20 60 22 99 61
128 126 20 46 20 58 20 1709 0 1651 0 1663 -20 1709 -29 65 -68 104 -128 126
-51 20 -81 20 -1200 19 l-1147 0 -51 -23z m1306 -272 c78 -23 169 -76 198
-116 7 -9 19 -24 28 -32 8 -8 29 -43 46 -78 31 -60 32 -69 32 -173 0 -101 -3
-115 -29 -170 -30 -62 -128 -175 -152 -175 -7 0 -13 -4 -13 -8 0 -18 -149 -61
-212 -62 -50 0 -153 27 -198 53 -44 25 -130 103 -130 117 0 6 -3 10 -8 10 -4
0 -15 15 -23 33 -44 90 -49 109 -49 198 0 104 25 179 86 259 41 54 138 120
204 139 25 8 50 15 55 16 29 9 118 3 165 -11z m-916 -1129 c48 -46 49 -89 5
-140 -27 -31 -37 -35 -78 -35 -40 0 -52 5 -75 30 -38 43 -43 81 -17 123 41 67
110 76 165 22z m1749 24 c63 -34 77 -116 30 -169 -51 -58 -154 -32 -183 46
-13 33 15 100 49 119 32 17 75 19 104 4z m-714 -105 c63 -18 89 -28 181 -73
64 -31 100 -51 110 -61 3 -3 23 -18 45 -35 94 -70 192 -188 245 -295 18 -36
37 -73 42 -84 5 -10 16 -42 23 -70 50 -200 51 -315 3 -506 -21 -84 -111 -260
-163 -317 -56 -62 -128 -133 -136 -133 -5 0 -9 -3 -9 -7 0 -5 -17 -19 -38 -33
-20 -14 -39 -27 -42 -31 -3 -3 -43 -24 -90 -46 -348 -166 -752 -99 -1023 170
-88 87 -125 139 -174 237 -57 116 -70 159 -89 295 -16 117 -11 202 22 345 32
136 153 338 256 425 19 17 47 40 62 53 100 84 311 173 441 186 78 8 279 -4
334 -20z m-1071 -1665 c36 -12 72 -64 72 -103 0 -61 -69 -113 -133 -101 -37 8
-87 65 -87 101 0 34 31 81 65 98 37 18 44 19 83 5z m1782 -4 c41 -21 60 -53
60 -100 0 -59 -44 -100 -106 -99 -50 1 -74 18 -99 70 -15 31 -14 36 5 73 32
64 85 85 140 56z"/>
<path d="M14225 3431 c-63 -16 -146 -78 -182 -134 -71 -112 -68 -242 7 -352
63 -91 143 -134 255 -134 61 -1 148 20 165 39 3 3 18 14 33 23 62 40 127 169
127 252 0 46 -25 132 -46 156 -8 8 -14 19 -14 24 0 14 -81 83 -124 106 -45 23
-167 35 -221 20z m150 -184 c114 -64 91 -225 -36 -258 -41 -11 -50 -10 -92 10
-26 13 -47 27 -47 33 0 5 -7 16 -15 24 -9 10 -15 34 -15 66 0 60 28 105 82
131 45 22 76 21 123 -6z"/>
<path d="M14195 2195 c-105 -16 -130 -23 -210 -60 -104 -49 -222 -142 -283
-224 -15 -20 -29 -38 -32 -41 -6 -5 -39 -65 -52 -92 -4 -10 -13 -27 -19 -39
-5 -11 -20 -51 -32 -87 -29 -92 -31 -338 -3 -422 38 -116 93 -227 119 -238 4
-2 7 -9 7 -15 0 -15 134 -146 175 -172 17 -11 32 -22 35 -25 3 -3 25 -15 50
-27 212 -102 408 -117 605 -46 161 58 278 143 369 267 79 109 119 198 142 316
47 246 -31 506 -206 681 -70 70 -121 109 -190 144 -30 15 -63 32 -74 37 -32
17 -117 36 -211 47 -49 6 -92 10 -95 10 -3 -1 -45 -7 -95 -14z m195 -399 c174
-43 290 -190 290 -368 0 -98 -48 -197 -128 -269 -76 -67 -137 -89 -244 -89
-76 0 -93 4 -174 41 -112 52 -194 187 -194 321 0 173 117 324 283 364 68 16
100 16 167 0z"/>
<path d="M2300 1565 l0 -1425 405 0 404 0 3 598 3 597 24 53 c45 100 127 144
229 123 72 -14 110 -44 141 -110 l26 -56 3 -602 3 -603 390 0 390 0 -4 698
c-4 754 -3 742 -61 895 -92 243 -292 377 -566 377 -208 0 -382 -79 -521 -236
l-54 -61 -3 588 -2 589 -405 0 -405 0 0 -1425z"/>
<path d="M976 2870 c-407 -47 -704 -227 -831 -504 -57 -122 -69 -184 -69 -346
0 -108 4 -162 18 -210 62 -227 223 -409 474 -534 40 -20 132 -61 205 -90 248
-100 333 -158 356 -241 27 -99 -2 -164 -94 -210 -56 -28 -67 -30 -170 -29
-222 1 -452 77 -672 220 l-83 54 0 -375 0 -374 53 -19 c245 -92 494 -129 802
-119 346 11 596 83 787 228 260 196 370 564 263 880 -63 186 -214 343 -466
482 -36 20 -148 72 -248 116 -283 123 -338 164 -348 255 -7 60 1 89 38 130 51
59 121 79 269 79 189 -1 387 -51 573 -144 l77 -39 0 349 0 349 -22 5 c-13 3
-74 17 -137 31 -62 15 -163 34 -225 42 -138 18 -444 26 -550 14z"/>
<path d="M10085 2555 c-203 -57 -380 -106 -392 -110 -23 -5 -23 -7 -23 -195
l0 -190 -150 0 -150 0 0 -280 0 -280 149 0 149 0 5 -417 c4 -322 8 -433 20
-483 63 -274 241 -442 522 -495 161 -31 448 -11 608 41 l47 16 0 279 c0 153
-3 279 -7 279 -5 0 -30 -7 -58 -16 -27 -9 -84 -16 -125 -17 -106 -1 -149 24
-187 108 -16 35 -18 80 -21 373 l-3 332 200 0 201 0 0 280 0 280 -200 0 -200
0 0 300 c0 165 -3 300 -7 299 -5 0 -174 -47 -378 -104z"/>
<path d="M5467 2095 c-142 -23 -234 -52 -362 -115 -237 -116 -393 -294 -468
-536 -76 -241 -57 -588 43 -802 113 -241 334 -426 595 -499 168 -46 424 -65
610 -45 306 34 565 164 724 365 204 256 268 712 144 1027 -121 308 -391 521
-753 595 -109 23 -421 28 -533 10z m370 -606 c62 -30 110 -91 136 -174 41
-131 25 -382 -32 -493 -25 -50 -88 -106 -137 -123 -116 -40 -260 3 -321 94
-48 71 -64 136 -70 274 -12 262 57 403 214 443 54 13 161 3 210 -21z"/>
<path d="M17014 2085 c-166 -36 -312 -157 -383 -316 l-20 -44 0 173 -1 172
-400 0 -400 0 0 -965 0 -965 399 0 400 0 3 478 c4 410 7 485 21 535 36 122 90
191 186 235 99 46 295 40 424 -13 16 -7 17 14 17 348 l0 355 -44 11 c-57 14
-125 13 -202 -4z"/>
<path d="M7083 1388 c4 -633 5 -678 24 -763 83 -363 285 -536 626 -535 217 1
394 88 537 266 l60 75 0 -145 0 -146 405 0 405 0 0 960 0 960 -405 0 -405 0 0
-568 c0 -616 -2 -643 -55 -724 -65 -98 -234 -113 -315 -29 -65 68 -64 54 -67
719 l-4 602 -405 0 -406 0 5 -672z"/>
<path d="M11050 1780 l0 -280 383 -2 383 -3 -423 -490 -423 -489 0 -188 0
-188 925 0 925 0 -2 277 -3 278 -387 3 c-214 1 -388 4 -388 7 0 3 171 206 380
453 l380 447 0 228 0 227 -875 0 -875 0 0 -280z"/>
</g>
</svg>
