<svg width="1735" height="388" viewBox="0 0 1735.000000 388.000000" xmlns="http://www.w3.org/2000/svg" version="1.0">
    <path d="m230,231.5l0,142.5l40.5,0l40.4,0l0.3,-59.8l0.3,-59.7l2.4,-5.3c4.5,-10 12.7,-14.4 22.9,-12.3c7.2,1.4 11,4.4 14.1,11l2.6,5.6l0.3,60.2l0.3,60.3l39,0l39,0l-0.4,-69.8c-0.4,-75.4 -0.3,-74.2 -6.1,-89.5c-9.2,-24.3 -29.2,-37.7 -56.6,-37.7c-20.8,0 -38.2,7.9 -52.1,23.6l-5.4,6.1l-0.3,-58.8l-0.2,-58.9l-40.5,0l-40.5,0l0,142.5z" id="svg_5"/>
    <path d="m97.6,101c-40.7,4.7 -70.4,22.7 -83.1,50.4c-5.7,12.2 -6.9,18.4 -6.9,34.6c0,10.8 0.4,16.2 1.8,21c6.2,22.7 22.3,40.9 47.4,53.4c4,2 13.2,6.1 20.5,9c24.8,10 33.3,15.8 35.6,24.1c2.7,9.9 -0.2,16.4 -9.4,21c-5.6,2.8 -6.7,3 -17,2.9c-22.2,-0.1 -45.2,-7.7 -67.2,-22l-8.3,-5.4l0,37.5l0,37.4l5.3,1.9c24.5,9.2 49.4,12.9 80.2,11.9c34.6,-1.1 59.6,-8.3 78.7,-22.8c26,-19.6 37,-56.4 26.3,-88c-6.3,-18.6 -21.4,-34.3 -46.6,-48.2c-3.6,-2 -14.8,-7.2 -24.8,-11.6c-28.3,-12.3 -33.8,-16.4 -34.8,-25.5c-0.7,-6 0.1,-8.9 3.8,-13c5.1,-5.9 12.1,-7.9 26.9,-7.9c18.9,0.1 38.7,5.1 57.3,14.4l7.7,3.9l0,-34.9l0,-34.9l-2.2,-0.5c-1.3,-0.3 -7.4,-1.7 -13.7,-3.1c-6.2,-1.5 -16.3,-3.4 -22.5,-4.2c-13.8,-1.8 -44.4,-2.6 -55,-1.4z" id="svg_6"/>
    <path d="m1008.50002,132.5c-20.3,5.7 -38,10.6 -39.2,11c-2.3,0.5 -2.3,0.7 -2.3,19.5l0,19l-15,0l-15,0l0,28l0,28l14.9,0l14.9,0l0.5,41.7c0.4,32.2 0.8,43.3 2,48.3c6.3,27.4 24.1,44.2 52.2,49.5c16.1,3.1 44.8,1.1 60.8,-4.1l4.7,-1.6l0,-27.9c0,-15.3 -0.3,-27.9 -0.7,-27.9c-0.5,0 -3,0.7 -5.8,1.6c-2.7,0.9 -8.4,1.6 -12.5,1.7c-10.6,0.1 -14.9,-2.4 -18.7,-10.8c-1.6,-3.5 -1.8,-8 -2.1,-37.3l-0.3,-33.2l20,0l20.1,0l0,-28l0,-28l-20,0l-20,0l0,-30c0,-16.5 -0.3,-30 -0.7,-29.9c-0.5,0 -17.4,4.7 -37.8,10.4z" id="svg_7"/>
    <path d="m546.70001,178.5c-14.2,2.3 -23.4,5.2 -36.2,11.5c-23.7,11.6 -39.3,29.4 -46.8,53.6c-7.6,24.1 -5.7,58.8 4.3,80.2c11.3,24.1 33.4,42.6 59.5,49.9c16.8,4.6 42.4,6.5 61,4.5c30.6,-3.4 56.5,-16.4 72.4,-36.5c20.4,-25.6 26.8,-71.2 14.4,-102.7c-12.1,-30.8 -39.1,-52.1 -75.3,-59.5c-10.9,-2.3 -42.1,-2.8 -53.3,-1zm37,60.6c6.2,3 11,9.1 13.6,17.4c4.1,13.1 2.5,38.2 -3.2,49.3c-2.5,5 -8.8,10.6 -13.7,12.3c-11.6,4 -26,-0.3 -32.1,-9.4c-4.8,-7.1 -6.4,-13.6 -7,-27.4c-1.2,-26.2 5.7,-40.3 21.4,-44.3c5.4,-1.3 16.1,-0.3 21,2.1z" id="svg_8"/>
    <path d="m1701.40003,179.5c-16.6,3.6 -31.2,15.7 -38.3,31.6l-2,4.4l0,-17.3l-0.1,-17.2l-40,0l-40,0l0,96.5l0,96.5l39.9,0l40,0l0.3,-47.8c0.4,-41 0.7,-48.5 2.1,-53.5c3.6,-12.2 9,-19.1 18.6,-23.5c9.9,-4.6 29.5,-4 42.4,1.3c1.6,0.7 1.7,-1.4 1.7,-34.8l0,-35.5l-4.4,-1.1c-5.7,-1.4 -12.5,-1.3 -20.2,0.4z" id="svg_9"/>
    <path d="m708.30001,249.2c0.4,63.3 0.5,67.8 2.4,76.3c8.3,36.3 28.5,53.6 62.6,53.5c21.7,-0.1 39.4,-8.8 53.7,-26.6l6,-7.5l0,14.5l0,14.6l40.5,0l40.5,0l0,-96l0,-96l-40.5,0l-40.5,0l0,56.8c0,61.6 -0.2,64.3 -5.5,72.4c-6.5,9.8 -23.4,11.3 -31.5,2.9c-6.5,-6.8 -6.4,-5.4 -6.7,-71.9l-0.4,-60.2l-40.5,0l-40.6,0l0.5,67.2z" id="svg_10"/>
    <path d="m1105.00002,210l0,28l38.3,0.2l38.3,0.3l-42.3,49l-42.3,48.9l0,18.8l0,18.8l92.5,0l92.5,0l-0.2,-27.7l-0.3,-27.8l-38.7,-0.3c-21.4,-0.1 -38.8,-0.4 -38.8,-0.7c0,-0.3 17.1,-20.6 38,-45.3l38,-44.7l0,-22.8l0,-22.7l-87.5,0l-87.5,0l0,28z" id="svg_11"/>
    <path id="svg_2" d="m1312.6392,6.35818c-5.39386,1.87968 -10.29737,6.45629 -12.91258,11.93187l-1.9614,4.08626l0,168.35385l0,168.35385l1.9614,4.08626c0.9807,2.20658 3.51418,5.63904 5.63904,7.51872c6.94664,6.37456 -1.6345,5.96594 126.02021,5.96594c98.56055,0 114.25179,-0.16345 117.84769,-1.22588c5.31214,-1.55278 11.3598,-6.94664 13.81155,-12.25878l1.9614,-4.08626l0,-168.35385l0,-168.35385l-1.9614,-4.08626c-0.9807,-2.28831 -3.51418,-5.63904 -5.63904,-7.51872c-6.94664,-6.37456 1.6345,-5.96594 -126.34711,-5.96594c-108.61275,0.08173 -114.33351,0.16345 -118.41977,1.55278l0,0zm127.40954,26.56068c15.36433,3.26901 28.19518,15.60951 32.28144,31.13729c3.59591,13.23948 -0.89898,29.25761 -10.95117,39.47326c-8.33597,8.58114 -17.73436,12.42223 -29.99314,12.42223c-12.25878,0 -21.65717,-3.84108 -29.99314,-12.42223c-16.26331,-16.50848 -16.18158,-42.25191 0.16345,-58.7604c10.54255,-10.706 24.19065,-14.87398 38.49255,-11.85015l0,0zm-94.8012,110.81933c8.17252,2.28831 10.95117,12.6674 5.06696,18.96024c-3.43246,3.59591 -9.80702,4.33143 -14.3019,1.6345c-2.37003,-1.38933 -5.55731,-6.78319 -5.55731,-9.39839c0,-4.41316 4.24971,-9.88875 8.58114,-11.11462c3.26901,-0.9807 2.86038,-0.9807 6.21111,-0.08173l0,0zm181.42987,1.47105c6.78319,3.84108 6.70146,15.20088 -0.08173,19.20541c-8.66287,5.14869 -19.77749,-2.94211 -17.16229,-12.50395c1.9614,-7.43699 10.3791,-10.706 17.24401,-6.70146l0,0zm-72.81713,9.97047c32.03627,8.41769 56.88072,32.85352 65.70704,64.56288c7.60044,27.70483 2.20658,55.81829 -15.28261,79.43686c-13.23948,17.97954 -35.63217,31.54592 -57.77969,35.0601c-39.71843,6.29284 -78.21099,-13.07603 -96.59915,-48.78993c-10.54255,-20.51302 -12.83085,-42.82399 -6.70146,-65.70704c9.31667,-34.65147 38.98291,-60.80353 75.10543,-66.52429c1.38933,-0.16345 8.33597,-0.24518 15.52778,-0.08173c10.29737,0.16345 14.54708,0.6538 20.02267,2.04313zm-105.67064,168.35385c5.06696,3.02383 6.94664,11.0329 3.67763,15.44606c-2.28831,3.10556 -6.61974,5.80249 -9.31667,5.80249c-3.51418,0 -7.76389,-2.20658 -9.80702,-5.14869c-2.20658,-3.10556 -2.37003,-9.23494 -0.3269,-12.3405c3.35073,-5.14869 10.706,-6.86491 15.77296,-3.75936zm178.16087,0c3.75936,2.28831 5.47559,5.31214 5.47559,9.7253c0,4.65834 -2.28831,8.25424 -6.37456,10.21565c-3.75936,1.79795 -6.61974,1.6345 -10.29737,-0.40863c-5.55731,-3.18728 -7.51872,-9.64357 -4.57661,-15.28261c2.86038,-5.47559 10.3791,-7.51872 15.77296,-4.24971z"/>
    <path id="svg_3" d="m1421.82402,44.27866c-15.60951,5.88421 -24.59928,21.57544 -20.75819,36.44943c2.69693,10.46082 8.17252,17.32574 17.57091,21.90235c4.08626,1.9614 5.47559,2.28831 12.74913,2.28831c7.27354,0 8.66287,-0.3269 12.74913,-2.28831c9.39839,-4.57661 14.87398,-11.44152 17.57091,-21.82062c3.43246,-13.40293 -3.67763,-28.03173 -16.99884,-34.81492c-3.67763,-1.87968 -5.55731,-2.28831 -12.09533,-2.53348c-5.14869,-0.16345 -8.74459,0.08173 -10.78772,0.81725l0,0zm15.93641,16.42676c1.47105,0.57208 3.67763,2.20658 4.82179,3.59591c10.54255,12.58568 -2.94211,29.91141 -17.89781,23.12822c-6.21111,-2.86038 -9.80702,-11.0329 -7.60044,-17.57091c1.22588,-3.84108 4.57661,-7.76389 7.76389,-9.15322c3.18728,-1.38933 9.56185,-1.47105 12.91258,0l0,0z"/>
    <path id="svg_4" d="m1416.26671,168.66437c-30.48349,6.86491 -52.54928,28.35863 -59.82282,58.4335c-3.59591,14.71053 -1.6345,33.99767 4.82179,48.29957c8.82632,19.36887 26.3155,35.14182 46.01127,41.43466c9.15322,2.94211 14.79226,3.75936 24.92618,3.67763c25.74343,-0.16345 48.95338,-12.83085 63.09183,-34.32457c9.07149,-13.81155 12.58568,-25.82515 12.58568,-42.33364c0,-11.52325 -1.22588,-18.14299 -5.47559,-28.76726c-4.98524,-12.58568 -15.28261,-25.6617 -26.07033,-33.34387c-6.53801,-4.65834 -17.48919,-9.88875 -25.0079,-12.0136c-8.09079,-2.20658 -27.37793,-2.77866 -35.0601,-1.06243l0,0zm22.14752,38.0022c11.0329,2.12485 22.55615,10.86945 27.21448,20.67647c4.74006,10.0522 4.65834,23.3734 -0.08173,33.26214c-2.86038,5.96594 -11.60497,14.62881 -17.48919,17.40746c-15.20088,7.11009 -32.36317,4.16798 -43.47779,-7.51872c-5.63904,-5.88421 -8.33597,-10.706 -9.88875,-17.24401c-3.10556,-13.15775 -0.16345,-24.92618 8.82632,-34.81492c8.90804,-9.88875 21.90235,-14.22018 34.89665,-11.76842l0,0z"/>
</svg>
